#!OML:ASF H:\IndianDance\Patient Classification 1\Patient 1\Session 1\dancer.ASF
:FULLY-SPECIFIED
:DEGREES
2060
root 2.49902 14.6044 3.024 1431.74 -106.882 -343.246
lowerback 6.24988 2.85182 1.58485
upperback -6.82457 4.06247 1.87932
thorax -10.8418 1.8627 0.513177
lowerneck -20.3704 -0.159607 0.716399
upperneck 22.2945 -1.83835 4.4235
head 10.5834 -0.306109 1.17795
rclavicle 4.20802e-014 1.2921e-014
rhumerus -2.15511 52.586 -73.1285
rradius 103.448
rwrist -99.3943
rhand -5.13039 2.46683
rfingers 7.12502
rthumb 20.6681 -26.4527
lclavicle 4.20802e-014 1.2921e-014
lhumerus 26.0005 -56.5338 43.0723
lradius 115.797
lwrist 91.8026
lhand -18.1941 24.5814
lfingers 7.12502
lthumb 8.08304 -305.593
rfemur -29.739 -18.5338 21.15
rtibia 60.9033
rfoot -19.8285 -21.3013
rtoes -10.6285
lfemur 141.43 161.669 157.362
ltibia 59.7311
lfoot -20.0038 2.53167
ltoes 11.6149
2061
root 2.5075 14.5633 2.93495 1432 -106.78 -343.561
lowerback 6.07833 2.78185 1.39595
upperback -6.81102 3.92762 1.70573
thorax -10.7208 1.80751 0.461377
lowerneck -20.2575 -0.198159 0.599754
upperneck 22.388 -1.92185 4.63579
head 10.6023 -0.331207 1.26132
rclavicle -1.28216e-014 -1.30204e-014
rhumerus -2.555 52.338 -75.0348
rradius 103.351
rwrist -100.514
rhand -4.8408 2.2526
rfingers 7.12502
rthumb 20.9464 -26.6364
lclavicle -1.28216e-014 -1.30204e-014
lhumerus 26.361 -56.9041 42.7231
lradius 115.436
lwrist 92.9148
lhand -18.2387 24.7047
lfingers 7.12502
lthumb 8.03996 -305.468
rfemur -29.3452 -18.6188 21.1839
rtibia 60.6352
rfoot -20.5568 -21.3923
rtoes -11.99
lfemur 141.324 162.106 157.683
ltibia 60.2337
lfoot -20.4604 2.98831
ltoes 11.5365
2062
root 2.51523 14.5268 2.84831 1432.06 -106.556 -343.725
lowerback 5.96362 2.69681 1.27323
upperback -6.79504 3.78286 1.53721
thorax -10.6276 1.74195 0.376803
lowerneck -20.1491 -0.242183 0.50654
upperneck 22.4744 -1.9976 4.76706
head 10.618 -0.360368 1.31295
rclavicle -7.36423e-014 -1.61761e-014
rhumerus -2.92225 52.0756 -76.7184
rradius 103.326
rwrist -101.354
rhand -4.58243 2.05367
rfingers 7.12502
rthumb 21.1946 -26.8077
lclavicle -7.36423e-014 -1.61761e-014
lhumerus 26.5664 -57.2267 42.5273
lradius 115.187
lwrist 93.7861
lhand -18.3334 24.7868
lfingers 7.12502
lthumb 7.94854 -305.383
rfemur -28.9922 -18.9914 21.2406
rtibia 60.677
rfoot -21.1906 -21.2331
rtoes -13.2233
lfemur 141.32 162.607 158.008
ltibia 60.6157
lfoot -20.9079 3.43657
ltoes 11.4737
2063
root 2.52186 14.4962 2.76541 1431.87 -106.254 -343.68
lowerback 5.91785 2.6075 1.23934
upperback -6.76935 3.6462 1.3886
thorax -10.5614 1.67392 0.259661
lowerneck -20.0643 -0.285284 0.455575
upperneck 22.5566 -2.05634 4.79484
head 10.6343 -0.389899 1.32304
rclavicle 1.56357e-014 2.88238e-015
rhumerus -3.23268 51.7919 -78.1713
rradius 103.357
rwrist -101.972
rhand -4.36644 1.85004
rfingers 7.12502
rthumb 21.402 -26.9879
lclavicle 1.56357e-014 2.88238e-015
lhumerus 26.5977 -57.496 42.5409
lradius 115.056
lwrist 94.5524
lhand -18.6544 24.8278
lfingers 7.12502
lthumb 7.6387 -305.33
rfemur -28.7007 -19.5892 21.314
rtibia 60.9442
rfoot -21.6583 -20.8073
rtoes -14.299
lfemur 141.431 163.161 158.366
ltibia 60.88
lfoot -21.3368 3.89769
ltoes 11.3964
2064
root 2.52853 14.4717 2.68682 1431.29 -105.926 -343.277
lowerback 5.95416 2.52236 1.32348
upperback -6.73644 3.53398 1.28173
thorax -10.5331 1.60991 0.114133
lowerneck -19.9792 -0.322236 0.44629
upperneck 22.6055 -2.08949 4.72562
head 10.6359 -0.41574 1.29487
rclavicle -1.85118e-014 6.85807e-015
rhumerus -3.47341 51.4891 -79.4038
rradius 103.426
rwrist -102.44
rhand -4.23413 1.65627
rfingers 7.12502
rthumb 21.5291 -27.1672
lclavicle -1.85118e-014 6.85807e-015
lhumerus 26.4425 -57.6931 42.7984
lradius 114.997
lwrist 95.2259
lhand -19.0515 24.8432
lfingers 7.12502
lthumb 7.25545 -305.301
rfemur -28.5076 -20.3265 21.4458
rtibia 61.3781
rfoot -21.9362 -20.1743
rtoes -15.1723
lfemur 141.628 163.744 158.81
ltibia 61.0478
lfoot -21.7223 4.36904
ltoes 11.2835
